/* XPM */
static char *_5d8c3212d194315f3aa21ad9315bfdckH3FaWl8MoaqtvSn[] = {
/* columns rows colors chars-per-pixel */
"32 32 183 2 ",
"   c None",
".  c black",
"X  c #3F3E41",
"o  c #4D4B48",
"O  c #777877",
"+  c #AB253C",
"@  c #AF4F5A",
"#  c #B15862",
"$  c #BA626B",
"%  c #C04458",
"&  c #B79700",
"*  c #9C8635",
"=  c #DEAE30",
"-  c #EAB62A",
";  c #FAD42E",
":  c #BBA34F",
">  c #D3AA57",
",  c #DAB55F",
"<  c #E1B249",
"1  c #CEB16C",
"2  c #CCAF7B",
"3  c #DAB672",
"4  c #FCD750",
"5  c #F0C863",
"6  c #FADA6B",
"7  c #376888",
"8  c #1D79A2",
"9  c #4A7C9D",
"0  c #B47C81",
"q  c #3682AA",
"w  c #2288B6",
"e  c #3F93BE",
"r  c #3794BD",
"t  c #7B8E9D",
"y  c #7FA6BF",
"u  c #299BCF",
"i  c #349CCE",
"p  c #3C9CCB",
"a  c #3297C9",
"s  c #2A9DD1",
"d  c #28A2D6",
"f  c #33A2D7",
"g  c #39A5DA",
"h  c #3BA6D9",
"j  c #06BEFA",
"k  c #2AACE1",
"l  c #3DAFE1",
"z  c #4C9AC5",
"x  c #449DCB",
"c  c #4697C1",
"v  c #589FC8",
"b  c #639DC2",
"n  c #4BA1CC",
"m  c #45A0CE",
"M  c #44A4D5",
"N  c #4BA5D6",
"B  c #44A6DA",
"V  c #4BABDC",
"C  c #4DA8D7",
"Z  c #52ADD9",
"A  c #53A7D1",
"S  c #5CB3DE",
"D  c #64A3C6",
"F  c #6EA1C3",
"G  c #7AB1CF",
"H  c #63ABD2",
"J  c #6BB2DB",
"K  c #7AA5C4",
"L  c #4AAEE1",
"P  c #4DB1E4",
"I  c #47BAEE",
"U  c #53B7EB",
"Y  c #54BAEC",
"T  c #57B7E8",
"R  c #4DBDF3",
"E  c #42BFF5",
"W  c #55BEF2",
"Q  c #61BBE8",
"!  c #46C5FC",
"~  c #5BC4F7",
"^  c #53C6FC",
"/  c #5BC6FA",
"(  c #56C8FE",
")  c #5CC9FD",
"_  c #56C1F6",
"`  c #62CCFE",
"'  c #63D4FF",
"]  c #69D4FF",
"[  c #65DBFF",
"{  c #77D8FF",
"}  c #82929D",
"|  c #969A9C",
" . c #BDB29E",
".. c #8B99A6",
"X. c #969CA1",
"o. c #97A0A7",
"O. c #8AA9BF",
"+. c #9DADBA",
"@. c #97A8B5",
"#. c #A4A4A5",
"$. c #A9ABAD",
"%. c #ADB2B6",
"&. c #A4B1BB",
"*. c #AAB4BC",
"=. c #BBBBBB",
"-. c #B5B5B6",
";. c #D1B0B3",
":. c #C7B6B8",
">. c #E9DDBE",
",. c #FFECB4",
"<. c #8DAEC7",
"1. c #82A8C2",
"2. c #87B0C8",
"3. c #9DB3C4",
"4. c #94B4CA",
"5. c #86B9D6",
"6. c #93B8D1",
"7. c #A4B8C7",
"8. c #A4BACB",
"9. c #AABDCD",
"0. c #A8B8C5",
"q. c #B4BBC1",
"w. c #B1BEC9",
"e. c #B9BEC5",
"r. c #9EC5DD",
"t. c #B2C1CD",
"y. c #BAC2C8",
"u. c #ACC3D5",
"i. c #AAC6DA",
"p. c #B3C6D5",
"a. c #BDCBD5",
"s. c #B5CBDB",
"d. c #BBCEDC",
"f. c #B6C7D4",
"g. c #BED1DF",
"h. c #93DDFF",
"j. c #88C4E7",
"k. c #B5CFE2",
"l. c #B9CFE1",
"z. c #BCD2E3",
"x. c #A7CAE1",
"c. c #85E3FF",
"v. c #91E0FF",
"b. c #C4C2C2",
"n. c #DBD0C2",
"m. c #C8CCD0",
"M. c #CBD2D8",
"N. c #D4D4D4",
"B. c #D4D6D9",
"V. c #DCDCDD",
"C. c #E5DBDD",
"Z. c #ECE3CD",
"A. c #FDF4DD",
"S. c #EDE7DA",
"D. c #C2D5E4",
"F. c #C0D6E8",
"G. c #C4DAEC",
"H. c #CDDCE8",
"J. c #DFDFE1",
"K. c #D2DCE5",
"L. c #C7DEF1",
"P. c #EADFE1",
"I. c #D2E3EF",
"U. c #DDE5ED",
"Y. c #DCE1E5",
"T. c #CBE3F5",
"R. c #D9EDFC",
"E. c #D4E9FA",
"W. c #E2E3E4",
"Q. c #E9E7E7",
"!. c #E7E8E9",
"~. c #EBECEC",
"^. c #E6E7E8",
"/. c #E6EDF4",
"(. c #EAEFF4",
"). c #EEF2F5",
"_. c #ECF4F9",
"`. c #E7F6FF",
"'. c #F2F3F3",
"]. c #F4F6F9",
"[. c #F7F9FA",
"{. c #FEFEFE",
"}. c #FBF8F4",
/* pixels */
"                                              2.                ",
"                                              v.                ",
"                                              { p               ",
"                            j.                ] W     D         ",
"    1.                    r.[ q             c ' _ q Z M         ",
"    c.w                   h.! x             n ' / M V V         ",
"  4.{ R 7               5.] ) U         5.8 n ' / L m V         ",
"  G ] / s               Z E ^ R q       Q ) e Y ) P h g 9       ",
"  A ' ! J +.Z l D.{.{.{.r.H D C w       Z ) P x V B p 4.z...    ",
"  Z j 6.}./.j G.{.{.{.{.[.[.W.9.1.    O.Y ) ~ B M i 3.D.F.T.}   ",
"  r i.'.{./.x.{.{.{.{.[.{.{.{.I.F.X.&.{ ^ ) Y N f 1.F.z.d.F.z.  ",
"  %.{.{.[.{.{.{.{.{.[.N.!.{.{./.k.H.y ! / ) U M x p.z.z.z.z.G...",
"  {.~.^.{.{.{.{.{.[.~.B.O [.{.[.z.G.7.R ) ) Y f F g.z.z.z.z.G.+.",
"b.[.-.-.{.{.{.{.[.{.#.O . V.{.{.d.k.a.S ) / Y s <.F.z.z.z.z.z.@.",
"J.N.. #.{.{.{.{.{.{.b.. X ~.{.>.,  .d.J ( / U a 8.F.z.z.z.z.p.+.",
"N.(.o J.{.~.].~.C.{.{.V.W.{.Z.; - > w.T ) / P c f.z.z.z.z.p.p.*.",
": A.{.{.).b.:.0 # '.{.{.{.].6 4 < 3 3.R ) / h b d.z.z.z.z.9.z.  ",
"  6 }.{.{.C.+ $ @ Q.{.[.{.S.4 5 - 2 H ( / ~ f K D.z.z.z.z.7.a.  ",
"  & ,.{.{.{.;.% $ '.{.{.{.Z.; = > O I ) / W s <.F.z.z.z.p.p.0.  ",
"    * Q.{.{.{.C.P.{.{.{.{.'.1 n.[.e.k ` / U u 4.F.z.z.z.9.d.    ",
"        =.B.'.{.{.{.{.{.{.[.K.{.{.q.d ` / V i 8.F.z.z.z.d.%.    ",
"        $.W.~.{.{.{.{.{.{.{.).z.z...e ^ Y C p u.z.z.z.z.|       ",
"        N.{.{.].{.{.{.{.{.{.].l.z.d.3.v d g n p.z.l.G.0.        ",
"          y.M.B.{.{.{.{.{.{.[.z.z.z.G.7.c s z z.z.z.G.          ",
"              $.{.{.{.{.{.{.U.l.z.d.z.z.Y.U.t.s.z.G.&.          ",
"                D._.)._./.H.k.z.z.F.p.7._.{.Q.3.G.D.            ",
"                t T.z.l.s.s.z.z.F.p.7.7.9.a.w.u.R.X.            ",
"                  @.T.G.F.z.F.T.d.7.d.z.p.u.s.R.%.              ",
"                    o.9.f.a.f.&.*.R.L.G.L.E.I.%.                ",
"                        K.p.t.    y.a.a.f.q.                    ",
"                        {.`.w.                                  ",
"                        m.y.                                    "
};
